<svg id="miniature_data_products_banner" data-name="miniature data products banner" xmlns="http://www.w3.org/2000/svg" xmlns:xlink="http://www.w3.org/1999/xlink" width="151.5" height="123.623" viewBox="0 0 151.5 123.623">
  <defs>
    <clipPath id="clip-path">
      <rect id="Rectangle_1574" data-name="Rectangle 1574" width="151.5" height="123.623" fill="none"/>
    </clipPath>
    <clipPath id="clip-path-3">
      <rect id="Rectangle_1545" data-name="Rectangle 1545" width="41.687" height="30.108" fill="none"/>
    </clipPath>
    <clipPath id="clip-path-4">
      <rect id="Rectangle_1547" data-name="Rectangle 1547" width="42.096" height="28.213" fill="none"/>
    </clipPath>
    <clipPath id="clip-path-5">
      <rect id="Rectangle_1551" data-name="Rectangle 1551" width="44.545" height="62.89" fill="none"/>
    </clipPath>
    <clipPath id="clip-path-6">
      <rect id="Rectangle_1569" data-name="Rectangle 1569" width="12.065" height="8.588" fill="none"/>
    </clipPath>
    <clipPath id="clip-path-7">
      <rect id="Rectangle_1570" data-name="Rectangle 1570" width="42.736" height="42.695" fill="none"/>
    </clipPath>
    <clipPath id="clip-path-8">
      <rect id="Rectangle_1571" data-name="Rectangle 1571" width="33.884" height="19.79" fill="none"/>
    </clipPath>
    <clipPath id="clip-path-9">
      <rect id="Rectangle_1572" data-name="Rectangle 1572" width="3.932" height="3.928" fill="none"/>
    </clipPath>
  </defs>
  <g id="Group_2603" data-name="Group 2603" clip-path="url(#clip-path)">
    <g id="Group_2602" data-name="Group 2602">
      <g id="Group_2601" data-name="Group 2601" clip-path="url(#clip-path)">
        <path id="Path_2738" data-name="Path 2738" d="M128,61.4A61.456,61.456,0,1,1,66.541,0,61.427,61.427,0,0,1,128,61.4" transform="translate(-3.861)" fill="#bba4ff" opacity="0.316"/>
        <path id="Path_2739" data-name="Path 2739" d="M209.835,146.747V66.59a1.222,1.222,0,0,1,1.219-1.218h61.984a1.222,1.222,0,0,1,1.219,1.218v80.157a1.222,1.222,0,0,1-1.219,1.218H211.054a1.222,1.222,0,0,1-1.219-1.218" transform="translate(-159.345 -49.657)" fill="#fff"/>
        <path id="Path_2740" data-name="Path 2740" d="M274.257,70.122V66.589a1.222,1.222,0,0,0-1.219-1.217H211.054a1.222,1.222,0,0,0-1.219,1.217v3.532Z" transform="translate(-159.345 -49.657)" fill="#3423c9"/>
        <path id="Path_2741" data-name="Path 2741" d="M219.3,73.759a.82.82,0,1,1,.821-.82.822.822,0,0,1-.821.82m0-1.5a.684.684,0,1,0,.684.684.685.685,0,0,0-.684-.684" transform="translate(-165.908 -54.782)" fill="#fff"/>
        <path id="Path_2742" data-name="Path 2742" d="M229.82,73.759a.82.82,0,1,1,.821-.82.822.822,0,0,1-.821.82m0-1.5a.684.684,0,1,0,.684.684.685.685,0,0,0-.684-.684" transform="translate(-173.898 -54.782)" fill="#fff"/>
        <path id="Path_2743" data-name="Path 2743" d="M240.342,73.759a.82.82,0,1,1,.821-.82.822.822,0,0,1-.821.82m0-1.5a.684.684,0,1,0,.684.684.685.685,0,0,0-.684-.684" transform="translate(-181.888 -54.782)" fill="#fff"/>
        <path id="Path_2744" data-name="Path 2744" d="M307.39,250.827c.861,0,.861-.972,0-.972H275.346c-.861,0-.861.972,0,.972Z" transform="translate(-208.603 -189.793)" fill="#bba4ff"/>
        <path id="Path_2745" data-name="Path 2745" d="M298.089,91.511a16.956,16.956,0,0,0-12.845,5.861l12.845,11.119,12.845-11.119a16.957,16.957,0,0,0-12.845-5.861" transform="translate(-216.609 -69.513)" fill="#ffc8ff"/>
        <path id="Path_2746" data-name="Path 2746" d="M360.538,151.8l-16.823,2.416V171.2a16.973,16.973,0,0,0,16.823-19.4" transform="translate(-261.011 -115.308)" fill="#7c41ff"/>
        <path id="Path_2747" data-name="Path 2747" d="M272.678,116.127a16.969,16.969,0,0,0,4,25.352l8.993-14.408Z" transform="translate(-204.025 -88.212)" fill="#e4d7ff"/>
        <path id="Path_2748" data-name="Path 2748" d="M310.234,178.732a16.93,16.93,0,0,1-9.188-2.7l9.19-14.283Z" transform="translate(-228.608 -122.869)" fill="#bba4ff"/>
        <path id="Path_2749" data-name="Path 2749" d="M364.13,120.406a16.894,16.894,0,0,0-3.978-8.7l-12.845,11.119Z" transform="translate(-263.739 -84.851)" fill="#f157ff"/>
        <path id="Path_2750" data-name="Path 2750" d="M411.207,185.909a.126.126,0,0,1-.125-.109c-.024-.17-.039-.343-.046-.514a.126.126,0,0,1,.252-.01c.007.163.021.328.044.49a.126.126,0,0,1-.108.142h-.017" transform="translate(-312.134 -140.646)" fill="#3423c9"/>
        <path id="Path_2751" data-name="Path 2751" d="M411.4,142.18h-.019a.126.126,0,0,1-.106-.143,5.92,5.92,0,0,1,.243-1,.126.126,0,0,1,.239.081,5.664,5.664,0,0,0-.233.953.126.126,0,0,1-.124.107m.631-1.9a.128.128,0,0,1-.058-.014.126.126,0,0,1-.054-.17,7.918,7.918,0,0,1,.527-.873.126.126,0,0,1,.207.143,7.684,7.684,0,0,0-.51.845.126.126,0,0,1-.112.068m1.137-1.651a.126.126,0,0,1-.1-.209c.218-.25.455-.5.706-.732a.126.126,0,1,1,.173.183c-.244.23-.476.47-.689.714a.126.126,0,0,1-.1.043m1.46-1.377a.126.126,0,0,1-.078-.225c.264-.207.542-.406.826-.592a.126.126,0,1,1,.138.211c-.277.182-.549.377-.808.58a.126.126,0,0,1-.078.027m1.68-1.1a.126.126,0,0,1-.061-.236c.293-.161.6-.316.9-.461a.126.126,0,1,1,.108.228c-.3.143-.6.3-.889.454a.125.125,0,0,1-.061.016m1.815-.861a.126.126,0,0,1-.047-.243c.308-.125.627-.244.948-.354a.126.126,0,1,1,.082.238c-.316.109-.631.226-.935.35a.127.127,0,0,1-.047.009m1.9-.654a.126.126,0,0,1-.035-.247c.319-.091.648-.177.978-.255a.126.126,0,1,1,.058.245c-.326.077-.652.162-.966.252a.128.128,0,0,1-.035,0m16.079-.357H436a.126.126,0,0,1-.125-.127.124.124,0,0,1,.127-.125h.1c.312,0,.612-.011.893-.033a.126.126,0,1,1,.02.251c-.287.022-.595.033-.913.033m-1.106-.039h-.008c-.3-.019-.629-.047-1.006-.084a.126.126,0,1,1,.025-.251c.374.037.7.064,1,.084a.126.126,0,0,1-.008.252m-13.018-.067a.126.126,0,0,1-.023-.25c.325-.062.66-.118,1-.167a.126.126,0,1,1,.037.249c-.333.049-.665.1-.986.165l-.024,0m16.023-.06a.126.126,0,0,1-.024-.25,7.025,7.025,0,0,0,.953-.253.126.126,0,1,1,.083.238,7.282,7.282,0,0,1-.988.263l-.024,0m-5.006-.064h-.014l-.3-.032q-.349-.038-.7-.072A.126.126,0,1,1,432,133.7q.352.034.7.072l.3.032a.126.126,0,0,1-.013.251m-9.028-.169a.126.126,0,0,1-.013-.251c.328-.036.666-.066,1.005-.091a.126.126,0,1,1,.018.251c-.336.025-.672.055-1,.09h-.014m7.027-.024h-.01c-.338-.027-.674-.05-1-.07a.126.126,0,1,1,.015-.252c.328.02.666.044,1.005.071a.126.126,0,0,1-.01.251m-2.007-.12h-.005c-.338-.013-.675-.022-1-.027a.126.126,0,0,1-.124-.128.124.124,0,0,1,.128-.124c.328,0,.668.014,1.008.027a.126.126,0,0,1,0,.252m-3.015,0a.126.126,0,0,1-.005-.252c.329-.013.669-.022,1.009-.026a.128.128,0,0,1,.128.124.126.126,0,0,1-.125.127c-.337,0-.674.013-1,.026h-.005m13.921-.28a.126.126,0,0,1-.06-.237,6.391,6.391,0,0,0,.828-.533.126.126,0,1,1,.152.2,6.655,6.655,0,0,1-.86.554.124.124,0,0,1-.06.015m1.6-1.2a.126.126,0,0,1-.089-.215,8.563,8.563,0,0,0,.658-.739.126.126,0,1,1,.2.156,8.794,8.794,0,0,1-.677.761.125.125,0,0,1-.089.037m1.251-1.568a.126.126,0,0,1-.106-.194c.174-.27.343-.559.5-.858a.126.126,0,0,1,.223.118c-.162.305-.335.6-.513.876a.126.126,0,0,1-.106.058" transform="translate(-312.312 -98.421)" fill="#e4d7ff" stroke="#e4d7ff" stroke-width="0.4"/>
        <path id="Path_2752" data-name="Path 2752" d="M545.594,124.569a.122.122,0,0,1-.051-.011.126.126,0,0,1-.065-.166c.066-.15.132-.3.194-.461a.126.126,0,0,1,.234.094c-.064.158-.13.316-.2.468a.127.127,0,0,1-.116.075" transform="translate(-414.219 -94.08)" fill="#e4d7ff" stroke="#e4d7ff" stroke-width="0.4"/>
        <path id="Path_2753" data-name="Path 2753" d="M538.842,83.968l-.527,11.949-3.949-4.142s4.493-8.142,4.524-8.008l-.172-.144c.133-.038-4.805,7.842-4.805,7.842l-5.543-1.435,10.2-6.268Z" transform="translate(-401.234 -63.521)" fill="#e4d7ff"/>
        <rect id="Rectangle_1540" data-name="Rectangle 1540" width="7.545" height="6.955" transform="translate(62.576 86.132)" fill="#7c41ff"/>
        <rect id="Rectangle_1541" data-name="Rectangle 1541" width="7.545" height="20.863" transform="translate(73.894 72.224)" fill="#7c41ff"/>
        <rect id="Rectangle_1542" data-name="Rectangle 1542" width="7.545" height="13.908" transform="translate(85.211 79.178)" fill="#f157ff"/>
        <rect id="Rectangle_1543" data-name="Rectangle 1543" width="7.545" height="27.816" transform="translate(96.529 65.27)" fill="#3423c9"/>
        <g id="Group_2582" data-name="Group 2582" transform="translate(15.614 23.791)" opacity="0.07">
          <g id="Group_2581" data-name="Group 2581">
            <g id="Group_2580" data-name="Group 2580" clip-path="url(#clip-path-3)">
              <rect id="Rectangle_1544" data-name="Rectangle 1544" width="41.687" height="30.108" transform="translate(0)" fill="#184462"/>
            </g>
          </g>
        </g>
        <rect id="Rectangle_1546" data-name="Rectangle 1546" width="41.882" height="30.197" transform="translate(13.69 22.044)" fill="#fff"/>
        <g id="Group_2585" data-name="Group 2585" transform="translate(13.655 24.314)" opacity="0.15">
          <g id="Group_2584" data-name="Group 2584">
            <g id="Group_2583" data-name="Group 2583" clip-path="url(#clip-path-4)">
              <path id="Path_2754" data-name="Path 2754" d="M99.237,107.039v-.093H94.086V101.9h-.093v5.05H87.816V101.9h-.093v5.05H81.547V101.9h-.093v5.05H75.278V101.9h-.093v5.05H69.008V101.9h-.093v5.05H62.739V101.9h-.093v5.05H57.5v.093h5.144v5.707H57.5v.093h5.144v5.707H57.5v.093h5.144v5.707H57.5v.093h5.144v5.31h.093v-5.31h6.176v5.31h.093v-5.31h6.176v5.31h.093v-5.31h6.176v5.31h.093v-5.31h6.176v5.31h.093v-5.31h6.176v5.31h.093v-5.31h5.152v-.093H94.086v-5.707h5.152v-.093H94.086v-5.707h5.152v-.093H94.086v-5.707Zm-11.514,5.707H81.547v-5.707h6.176Zm-12.445.093h6.176v5.707H75.278Zm-.093,5.707H69.009v-5.707h6.176Zm6.363-5.707h6.176v5.707H81.547Zm-.093-.093H75.278v-5.707h6.176Zm-6.269,0H69.009v-5.707h6.176Zm-12.445-5.707h6.176v5.707H62.739Zm0,5.8h6.176v5.707H62.739Zm0,5.8h6.176v5.707H62.739Zm6.269,0h6.176v5.707H69.008Zm6.269,0h6.176v5.707H75.278Zm6.27,0h6.176v5.707H81.547Zm12.445,5.707H87.816v-5.707h6.176Zm0-5.8H87.816v-5.707h6.176Zm0-5.8H87.816v-5.707h6.176Z" transform="translate(-57.321 -101.715)" fill="#bba4ff"/>
              <path id="Path_2755" data-name="Path 2755" d="M99.237,107.039v-.093H94.086V101.9h-.093v5.05H87.816V101.9h-.093v5.05H81.547V101.9h-.093v5.05H75.278V101.9h-.093v5.05H69.008V101.9h-.093v5.05H62.739V101.9h-.093v5.05H57.5v.093h5.144v5.707H57.5v.093h5.144v5.707H57.5v.093h5.144v5.707H57.5v.093h5.144v5.31h.093v-5.31h6.176v5.31h.093v-5.31h6.176v5.31h.093v-5.31h6.176v5.31h.093v-5.31h6.176v5.31h.093v-5.31h6.176v5.31h.093v-5.31h5.152v-.093H94.086v-5.707h5.152v-.093H94.086v-5.707h5.152v-.093H94.086v-5.707Zm-11.514,5.707H81.547v-5.707h6.176Zm-12.445.093h6.176v5.707H75.278Zm-.093,5.707H69.009v-5.707h6.176Zm6.363-5.707h6.176v5.707H81.547Zm-.093-.093H75.278v-5.707h6.176Zm-6.269,0H69.009v-5.707h6.176Zm-12.445-5.707h6.176v5.707H62.739Zm0,5.8h6.176v5.707H62.739Zm0,5.8h6.176v5.707H62.739Zm6.269,0h6.176v5.707H69.008Zm6.269,0h6.176v5.707H75.278Zm6.27,0h6.176v5.707H81.547Zm12.445,5.707H87.816v-5.707h6.176Zm0-5.8H87.816v-5.707h6.176Zm0-5.8H87.816v-5.707h6.176Z" transform="translate(-57.321 -101.715)" fill="none" stroke="#bba4ff" stroke-width="1.5"/>
            </g>
          </g>
        </g>
        <path id="Path_2756" data-name="Path 2756" d="M79.29,138.933a1.1,1.1,0,0,1,.772,1.882l3.829,3.294.291.25a1.1,1.1,0,1,1,1.288,1.778l.839,2.017.358.86a1.095,1.095,0,0,1,1.2.518l3.7-2.336,2.741-1.731a1.1,1.1,0,1,1,2.122-.408,1.114,1.114,0,0,1-.023.225l5.187,2.115.509.207a1.1,1.1,0,1,1,1.764,1.237l.77.873,3.677,4.17a1.1,1.1,0,1,1-.285.281l-3.14-3.561-1.362-1.545a1.1,1.1,0,0,1-1.515-1.018c0-.015,0-.029,0-.044l-.075-.031-5.683-2.317a1.1,1.1,0,0,1-1.733.154l-2.486,1.569L88,149.921a1.118,1.118,0,0,1,.013.164,1.1,1.1,0,1,1-1.715-.913l-1.2-2.882a1.1,1.1,0,0,1-1.181-1.628l-.677-.583-2.9-2.5-.626-.538a1.1,1.1,0,1,1-.428-2.113" transform="translate(-59.375 -105.535)" fill="#f157ff"/>
        <rect id="Rectangle_1548" data-name="Rectangle 1548" width="41.913" height="9.244" transform="translate(13.69 22.044)" fill="#3423c9"/>
        <path id="Path_2757" data-name="Path 2757" d="M68.87,98.97l-.585.585-1.756,1.754-.585.585.585.585,2.341,2.339.585-.585-2.341-2.339,1.756-1.754,1.756,1.754-1.171,1.169.585.585,1.171-1.169.585-.585-.585-.585-1.756-1.754Z" transform="translate(-50.077 -75.179)" fill="#fff"/>
        <rect id="Rectangle_1549" data-name="Rectangle 1549" width="0.911" height="0.911" transform="translate(18.15 26.715) rotate(-45)" fill="#fff"/>
        <rect id="Rectangle_1550" data-name="Rectangle 1550" width="27.656" height="0.787" transform="translate(24.485 26.321)" fill="#fff"/>
        <g id="Group_2588" data-name="Group 2588" transform="translate(4.084 60.734)" opacity="0.07">
          <g id="Group_2587" data-name="Group 2587">
            <g id="Group_2586" data-name="Group 2586" clip-path="url(#clip-path-5)">
              <path id="Path_2758" data-name="Path 2758" d="M57.734,315.539H16.974v-62.89H61.519v59.109a3.783,3.783,0,0,1-3.785,3.781" transform="translate(-16.974 -252.649)" fill="#184462"/>
            </g>
          </g>
        </g>
        <path id="Path_2759" data-name="Path 2759" d="M0,297.053V233.412a1.206,1.206,0,0,1,1.2-1.2H46.054a1.206,1.206,0,0,1,1.2,1.2v63.641a1.206,1.206,0,0,1-1.2,1.2H1.2a1.206,1.206,0,0,1-1.2-1.2" transform="translate(0 -176.39)" fill="#fff"/>
        <rect id="Rectangle_1552" data-name="Rectangle 1552" width="38.855" height="24.547" transform="translate(4.752 61.237)" fill="#fff"/>
        <rect id="Rectangle_1553" data-name="Rectangle 1553" width="2.178" height="2.178" transform="translate(4.672 95.551) rotate(-45)" fill="#7c41ff"/>
        <rect id="Rectangle_1554" data-name="Rectangle 1554" width="19.189" height="0.888" transform="translate(10.085 90.414)" fill="#3423c9"/>
        <rect id="Rectangle_1555" data-name="Rectangle 1555" width="19.189" height="0.888" transform="translate(9.958 95.107)" fill="#3423c9"/>
        <rect id="Rectangle_1556" data-name="Rectangle 1556" width="37.078" height="0.959" transform="translate(5.133 101.732)" fill="#bba4ff"/>
        <rect id="Rectangle_1557" data-name="Rectangle 1557" width="16.507" height="13.146" transform="translate(5.133 104.519)" fill="#e4d7ff"/>
        <rect id="Rectangle_1558" data-name="Rectangle 1558" width="18.031" height="5.724" transform="translate(24.18 104.646)" fill="#f157ff"/>
        <rect id="Rectangle_1559" data-name="Rectangle 1559" width="18.031" height="5.724" transform="translate(23.989 111.876)" fill="#7c41ff"/>
        <path id="Path_2760" data-name="Path 2760" d="M141.7,365.868l-.864.863-2.591,2.588-.863.863.863.863L141.7,374.5l.864-.863-3.454-3.451,2.59-2.588,2.59,2.588-1.727,1.726.863.863,1.727-1.725.864-.863-.864-.862-2.59-2.588Z" transform="translate(-104.326 -277.918)" fill="#3423c9"/>
        <rect id="Rectangle_1560" data-name="Rectangle 1560" width="1.343" height="1.343" transform="translate(36.424 92.264) rotate(-45)" fill="#3423c9"/>
        <path id="Path_2761" data-name="Path 2761" d="M25.351,289.471c-.781-.407-.928-.774-.782-1.852.135-.988.245-1.98.378-2.969a1.224,1.224,0,0,0-.356-1.047,4.633,4.633,0,0,1-.773-1.33c-.084-.212.057-.523.12-.783.119-.494.084-.659-.365-.891a7.959,7.959,0,0,0-1.963-1c-.345-.074-.613-.506-.921-.78l-.1.245c-.042,0-.08.009-.086,0A8.671,8.671,0,0,1,19,276.553a3.632,3.632,0,0,1-.125-.881,1.631,1.631,0,0,0-.755-1.414,2.443,2.443,0,0,1-.924-1.069c-.146-.357-.489-.43-.889-.191a1.623,1.623,0,0,1-1.274.134.862.862,0,0,1-.744-.823c-.023-.2-.071-.406-.109-.608v-.468c.187-.187.362-.377.231-.676a.213.213,0,0,1,.015-.15,1.719,1.719,0,0,1,1.474-.719,2.409,2.409,0,0,1,.515.176,4.572,4.572,0,0,0,2.543.224,1.052,1.052,0,0,1,.414.014,3.989,3.989,0,0,0,2.626.208c.483.283.84-.126,1.257-.218.37-.082.72.6.587,1.075a3.963,3.963,0,0,0-.077.658l.137.11a3.221,3.221,0,0,1-.7.165.785.785,0,0,0-.772.513.63.63,0,0,0,.311.868c.235.129.5.2.728.342a.979.979,0,0,1,.255.368,1,1,0,0,0,.185.3c.089-.429.364-.795.151-1.266a1.348,1.348,0,0,1,.077-.827.44.44,0,0,1,.4-.156,7.886,7.886,0,0,1,.852.592l.043.187.285-.5c.09.063.147.081.166.119q.622,1.25,1.236,2.5c.126.256.04.312-.237.4a13.383,13.383,0,0,0-1.4.65c-.761.344-.987,1.134-1.446,1.727a1.877,1.877,0,0,0-.18.689l-.182.133a2.552,2.552,0,0,0-.173-.375,1.014,1.014,0,0,0-1.285-.212c-.212.154-.183.989.056,1.053.114.031.27-.1.407-.154s.268-.115.4-.173c.045.143.081.29.14.428a2.776,2.776,0,0,0,.219.4c.033.051.123.07.145.122.23.538.574.469,1.013.25a1.15,1.15,0,0,1,.643.014,3.085,3.085,0,0,1,2.026,1.049,2.085,2.085,0,0,0,1.268.68c.867.206.913.339.674,1.192a3.609,3.609,0,0,1-.961,1.693c-.809.786-1.549,1.642-2.31,2.476-.1.11-.227.279-.207.4.1.63-.341,1.262.014,1.885Z" transform="translate(-10.766 -204.846)" fill="#bba4ff"/>
        <path id="Path_2762" data-name="Path 2762" d="M94.851,261.878l.316.195c.032-.032.065-.052.063-.067-.068-.493-.033-.907.621-.934.088,0,.182-.139.252-.229a2.621,2.621,0,0,1,2.263-.793,1.186,1.186,0,0,1,.788.442,3.059,3.059,0,0,0,2.013,1,12.527,12.527,0,0,1,3.014.764,1.416,1.416,0,0,0,.571.105,3.757,3.757,0,0,1,2.494,1.359c.07.062.045.324-.027.435-.116.18-.236.435-.545.331-.133-.045-.264-.094-.455-.163.075.912-.686.971-1.215,1.255-.281.151-.579.255-.576.648a.268.268,0,0,1-.058.143,14.726,14.726,0,0,1-1.089,1.39c0-.312.007-.625,0-.937s.067-.667-.3-.82a.851.851,0,0,0-.974.312,4.145,4.145,0,0,0-.3.395c.533.3.414.718.19,1.087a5.975,5.975,0,0,1-.821,1.028.981.981,0,0,0-.327.789.468.468,0,0,1-.557.519c-.072-.008-.166-.137-.186-.225a1.9,1.9,0,0,1-.008-.427c-.408.168-.574.421-.441.778.423,1.135-.033,1.352-.917,1.605-.4.114-.456.22-.317.608a.654.654,0,0,1-.593.872c-.12,0-.24-.152-.375-.244l-.257.35a1.986,1.986,0,0,0-1.045-1.638c-.3.432-.592.861-.883,1.294-.072.107-.12.23-.188.341-.137.224-.279.225-.392-.015-.138-.293-.27-.59-.39-.892a1.969,1.969,0,0,0-1.34-1.147,6.523,6.523,0,0,0-1.154-.318c.122.08.236.207.368.23a.575.575,0,0,1,.507.512c.06.3-.171.413-.374.524-.977.536-1.226.455-1.73-.532a.9.9,0,0,0-.277-.316,1.507,1.507,0,0,0,1.844,1.342c-.19.407-.318.692-.455.972a.76.76,0,0,1-.16.22,2.3,2.3,0,0,0-.764,2.059.654.654,0,0,1-.241.528,1.566,1.566,0,0,0-.72,1.065,1.343,1.343,0,0,1-1.244,1.058c-.311.052-.471-.033-.533-.38-.188-1.046-.412-2.085-.629-3.125a10.106,10.106,0,0,0-.287-1.148.462.462,0,0,0-.347-.224,5.2,5.2,0,0,0-.933.033,1.075,1.075,0,0,1-1.253-.633,2.185,2.185,0,0,1,.038-2.278,2.636,2.636,0,0,1,2.528-1.265.852.852,0,0,1,.784.429.674.674,0,0,0,.7.31c.263-.018.535.06.8.031a1.545,1.545,0,0,0,.6-.235c.055-.033.059-.224.023-.318-.06-.156-.961-.331-1.124-.268-.1.039-.3.052-.334,0-.2-.288-.394-.225-.617-.048a.611.611,0,0,1-.178.063.8.8,0,0,0-.871-.831.6.6,0,0,0-.4.293,1.493,1.493,0,0,1-.842.708.371.371,0,0,1-.523-.18.669.669,0,0,1,.5-1.046c.088-.008.175-.028.339-.055l-.388-.824c.686.027,1.008-.47,1.41-.843a.552.552,0,0,1,.605-.11c.645.194,1.01-.065,1.03-.722a.334.334,0,0,0-.147-.233c-.032-.022-.163.049-.208.109-.069.091-.083.226-.157.31-.094.106-.235.259-.338.246a.5.5,0,0,1-.361-.276,1.15,1.15,0,0,0-.57-.743.411.411,0,0,1-.084-.694c.738-.786,1.49-1.559,2.243-2.331.215-.221.407-.195.619.05a2.735,2.735,0,0,0,.823.759,1.981,1.981,0,0,0,1.244.194,5.117,5.117,0,0,0,2.249-1.1.83.83,0,0,1,.313-.143c.215-.074.433-.138.65-.205l.023-.124" transform="translate(-63.923 -197.537)" fill="#bba4ff"/>
        <path id="Path_2763" data-name="Path 2763" d="M67.009,267.91a3,3,0,0,1-1.22-2.844,1.59,1.59,0,0,0-.144-.6,1.549,1.549,0,0,1-.081-.211c-.06-.54-.112-1.08-.169-1.651h4.6a1.952,1.952,0,0,1-.115.3,1.568,1.568,0,0,0-.233,1.3.715.715,0,0,1-.277.8,8.076,8.076,0,0,1-.954.737,2.032,2.032,0,0,0-1.134,1.525,3.082,3.082,0,0,1-.269.647" transform="translate(-49.659 -199.48)" fill="#bba4ff"/>
        <path id="Path_2764" data-name="Path 2764" d="M147.511,325.4l.615-.49c.049.074.119.182.192.289.259.383.493.787.787,1.142a.8.8,0,0,1,.217.846c-.092.256-.163.519-.25.776a.863.863,0,0,1-1.441.355.157.157,0,0,1-.026-.029,1.219,1.219,0,0,0-1.772-.41,1.851,1.851,0,0,1-.33.118c-.548.155-.763-.046-.686-.6a2,2,0,0,0-.027-.762.4.4,0,0,1,.353-.563c.348-.069.526-.325.773-.528a4.155,4.155,0,0,1,1.189-.59c.079-.03.249.181.378.281l.028.16" transform="translate(-109.931 -246.806)" fill="#bba4ff"/>
        <path id="Path_2765" data-name="Path 2765" d="M136.315,316.529c.311.247.628.488.931.745.173.147.308.188.428-.047.018-.034.036-.081.066-.094.243-.107.489-.207.733-.309l.19.58c.088-.066.2-.162.325-.24.3-.185.5-.084.537.258.059.546-.109.71-.685.665-.051,0-.13-.028-.15,0-.314.385-.6.063-.892-.03-.073-.023-.167-.076-.22-.051-.408.193-.566-.108-.735-.366-.218-.332-.418-.675-.625-1.014l.1-.094" transform="translate(-103.442 -240.44)" fill="#bba4ff"/>
        <path id="Path_2766" data-name="Path 2766" d="M153.982,292.984c.22.364.311.589.1.883a2.479,2.479,0,0,0-.212.647c-.052.154-.079.359-.191.441-.361.264-.756.482-1.138.718l-.125-.122a2.278,2.278,0,0,1,.449-.55,1.554,1.554,0,0,0,.634-.851c.13-.368.3-.723.484-1.166" transform="translate(-115.741 -222.554)" fill="#bba4ff"/>
        <path id="Path_2767" data-name="Path 2767" d="M153.57,320.058a1.681,1.681,0,0,1,2.088,1.109,5.169,5.169,0,0,1-1.281-.288c-.318-.163-.531-.528-.807-.821" transform="translate(-116.618 -243.088)" fill="#bba4ff"/>
        <rect id="Rectangle_1561" data-name="Rectangle 1561" width="0.998" height="0.998" transform="matrix(0.707, -0.707, 0.707, 0.707, 31.104, 69.773)" fill="#7c41ff"/>
        <rect id="Rectangle_1562" data-name="Rectangle 1562" width="0.998" height="0.998" transform="translate(24.746 75.43) rotate(-45)" fill="#7c41ff"/>
        <rect id="Rectangle_1563" data-name="Rectangle 1563" width="2.333" height="2.333" transform="translate(14.1 75.193) rotate(-45)" fill="#7c41ff"/>
        <rect id="Rectangle_1564" data-name="Rectangle 1564" width="2.333" height="2.333" transform="translate(26.089 68.367) rotate(-45)" fill="#7c41ff"/>
        <rect id="Rectangle_1565" data-name="Rectangle 1565" width="1.502" height="1.502" transform="translate(20.988 68.353) rotate(-45)" fill="#7c41ff"/>
        <rect id="Rectangle_1566" data-name="Rectangle 1566" width="1.195" height="1.195" transform="translate(9.504 69.068) rotate(-45)" fill="#7c41ff"/>
        <path id="Path_2768" data-name="Path 2768" d="M90.146,290.4a.692.692,0,1,1-.692-.692.692.692,0,0,1,.692.692" transform="translate(-67.404 -220.065)" fill="#f157ff"/>
        <path id="Path_2769" data-name="Path 2769" d="M148.632,277.918a.638.638,0,1,1-.638-.637.638.638,0,0,1,.638.637" transform="translate(-111.9 -210.626)" fill="#f157ff"/>
        <path id="Path_2770" data-name="Path 2770" d="M104.05,317.908a.8.8,0,1,1-.8-.8.8.8,0,0,1,.8.8" transform="translate(-77.798 -240.879)" fill="#f157ff"/>
        <path id="Path_2771" data-name="Path 2771" d="M39.756,293.469a1.51,1.51,0,1,1-1.511-1.509,1.51,1.51,0,0,1,1.511,1.509" transform="translate(-27.896 -221.777)" fill="#f157ff"/>
        <path id="Path_2772" data-name="Path 2772" d="M22.965,373.786a1.324,1.324,0,1,1-1.324-1.322,1.323,1.323,0,0,1,1.324,1.322" transform="translate(-15.428 -282.928)" fill="#f157ff"/>
        <path id="Path_2773" data-name="Path 2773" d="M64.081,321.746a.638.638,0,1,1-.638-.637.638.638,0,0,1,.638.637" transform="translate(-47.693 -243.919)" fill="#f157ff"/>
        <rect id="Rectangle_1567" data-name="Rectangle 1567" width="2.333" height="2.333" transform="translate(36.346 77.491) rotate(-45)" fill="#7c41ff"/>
        <path id="Path_2774" data-name="Path 2774" d="M156.471,330.52a.638.638,0,1,1-.638-.637.638.638,0,0,1,.638.637" transform="translate(-117.852 -250.583)" fill="#f157ff"/>
        <path id="Path_2775" data-name="Path 2775" d="M113.016,292.844a1.052,1.052,0,1,1-1.052-1.051,1.051,1.051,0,0,1,1.052,1.051" transform="translate(-84.225 -221.65)" fill="#f157ff"/>
        <path id="Path_2776" data-name="Path 2776" d="M130.825,295.249a.638.638,0,1,1-.638-.637.638.638,0,0,1,.638.637" transform="translate(-98.377 -223.791)" fill="#f157ff"/>
        <rect id="Rectangle_1568" data-name="Rectangle 1568" width="1.709" height="1.709" transform="matrix(0.707, -0.707, 0.707, 0.707, 34.886, 65.105)" fill="#7c41ff"/>
        <path id="Path_2777" data-name="Path 2777" d="M148.091,278.168a.889.889,0,1,1-.889-.888.889.889,0,0,1,.889.888" transform="translate(-111.107 -210.625)" fill="#f157ff"/>
        <path id="Path_2778" data-name="Path 2778" d="M499.276,248.794l-4.369,6.992-24.794-15.6,4.369-6.992Z" transform="translate(-356.995 -177.133)" fill="#f157ff"/>
        <path id="Path_2779" data-name="Path 2779" d="M550.606,285.706l-.043.068a3.776,3.776,0,0,1-5.1,1.5L526.443,275.58l4.19-7.1,19.08,11.993a3.768,3.768,0,0,1,.893,5.238" transform="translate(-399.771 -203.937)" fill="#3423c9"/>
        <g id="Group_2591" data-name="Group 2591" transform="translate(114.852 56.376)" opacity="0.2" style="mix-blend-mode: multiply;isolation: isolate">
          <g id="Group_2590" data-name="Group 2590">
            <g id="Group_2589" data-name="Group 2589" clip-path="url(#clip-path-6)">
              <path id="Path_2780" data-name="Path 2780" d="M477.322,242.236l1.2.873,10.864-2.817-9.052-5.77Z" transform="translate(-477.322 -234.521)" fill="#bbbcc0"/>
            </g>
          </g>
        </g>
        <path id="Path_2781" data-name="Path 2781" d="M336.445,98.259a24.818,24.818,0,1,0,7.915,34.186,24.85,24.85,0,0,0-7.915-34.186m4.971,32.35a21.359,21.359,0,1,1-6.809-29.409,21.377,21.377,0,0,1,6.809,29.409" transform="translate(-226.64 -71.776)" fill="#f157ff"/>
        <g id="Group_2594" data-name="Group 2594" transform="translate(75.284 26.182)" opacity="0.5">
          <g id="Group_2593" data-name="Group 2593">
            <g id="Group_2592" data-name="Group 2592" clip-path="url(#clip-path-7)">
              <path id="Path_2782" data-name="Path 2782" d="M345.561,112.158a21.35,21.35,0,1,0,6.809,29.409,21.377,21.377,0,0,0-6.809-29.409" transform="translate(-312.879 -108.916)" fill="#bba4ff"/>
            </g>
          </g>
        </g>
        <g id="Group_2597" data-name="Group 2597" transform="translate(78.269 28.278)" opacity="0.22">
          <g id="Group_2596" data-name="Group 2596">
            <g id="Group_2595" data-name="Group 2595" clip-path="url(#clip-path-8)">
              <path id="Path_2783" data-name="Path 2783" d="M328.27,136.027a15.049,15.049,0,0,1,28.043-7.969c.972,1.657,3.616.272,2.642-1.387a18.032,18.032,0,0,0-33.571,7.056,16.509,16.509,0,0,0-.1,2.214c.03,1.915,3.014,2.016,2.984.087" transform="translate(-325.283 -117.635)" fill="#fff"/>
            </g>
          </g>
        </g>
        <g id="Group_2600" data-name="Group 2600" transform="translate(110.752 41.318)" opacity="0.31">
          <g id="Group_2599" data-name="Group 2599">
            <g id="Group_2598" data-name="Group 2598" clip-path="url(#clip-path-9)">
              <path id="Path_2784" data-name="Path 2784" d="M463.288,172.181a1.964,1.964,0,1,1-2.709.626,1.963,1.963,0,0,1,2.709-.626" transform="translate(-460.281 -171.883)" fill="#fff"/>
            </g>
          </g>
        </g>
        <path id="Path_2785" data-name="Path 2785" d="M351.3,128.031a21.122,21.122,0,1,1-2.836-10.574,21.27,21.27,0,0,1,2.836,10.574.569.569,0,0,0,1.137,0,22.267,22.267,0,1,0-7.06,16.255,22.494,22.494,0,0,0,7.06-16.255.569.569,0,0,0-1.137,0" transform="translate(-233.802 -80.349)" fill="#7c41ff"/>
      </g>
    </g>
  </g>
</svg>
