<svg xmlns="http://www.w3.org/2000/svg" width="121.973" height="121.972" viewBox="0 0 121.973 121.972">
  <g id="Group_5414" data-name="Group 5414" transform="translate(-21437.479 1490.972)">
    <g id="no_logo" data-name="no logo" transform="translate(21439.479 -1488.972)">
      <circle id="Ellipse_483" data-name="Ellipse 483" cx="52.232" cy="52.232" r="52.232" transform="translate(6.754 6.754)" fill="#f6b64e" stroke="#f157ff" stroke-width="2"/>
      <path id="Path_4880" data-name="Path 4880" d="M58.986,0A58.986,58.986,0,1,1,0,58.986,58.986,58.986,0,0,1,58.986,0Z" fill="#fdf1df" stroke="#e1dbff" stroke-width="4"/>
      <circle id="Ellipse_484" data-name="Ellipse 484" cx="52.232" cy="52.232" r="52.232" transform="translate(7.023 6.754)" fill="#fff" stroke="#fee6ff" stroke-width="4"/>
      <path id="Path_5432" data-name="Path 5432" d="M-.968,4.477A8.187,8.187,0,0,1-4.936,3.5,7.427,7.427,0,0,1-7.8.764,7.483,7.483,0,0,1-8.861-3.182,7.427,7.427,0,0,1-7.8-7.119,7.452,7.452,0,0,1-4.936-9.842a8.187,8.187,0,0,1,3.969-.979A8.187,8.187,0,0,1,3-9.842,7.293,7.293,0,0,1,5.844-7.119,7.547,7.547,0,0,1,6.883-3.182,7.542,7.542,0,0,1,5.833.764,7.369,7.369,0,0,1,2.99,3.5,8.125,8.125,0,0,1-.968,4.477Zm0-3.319A3.818,3.818,0,0,0,1.973-.033a4.448,4.448,0,0,0,1.1-3.149,4.44,4.44,0,0,0-1.1-3.16A3.835,3.835,0,0,0-.968-7.523a3.88,3.88,0,0,0-2.963,1.17,4.432,4.432,0,0,0-1.1,3.17,4.44,4.44,0,0,0,1.1,3.16A3.862,3.862,0,0,0-.968,1.158Zm18.9-4.473a3.586,3.586,0,0,1,2.143,1.287A3.592,3.592,0,0,1,20.888.281a3.627,3.627,0,0,1-1.345,2.968,5.781,5.781,0,0,1-3.75,1.1H8.643V-10.592h6.91a5.776,5.776,0,0,1,3.663,1.043,3.411,3.411,0,0,1,1.323,2.83,3.357,3.357,0,0,1-.711,2.192A3.684,3.684,0,0,1,17.936-3.315ZM12.382-4.549h2.449a2.211,2.211,0,0,0,1.41-.394,1.4,1.4,0,0,0,.492-1.16,1.428,1.428,0,0,0-.492-1.17,2.169,2.169,0,0,0-1.41-.4H12.382Zm2.755,5.958A2.26,2.26,0,0,0,16.591.993a1.455,1.455,0,0,0,.514-1.2,1.52,1.52,0,0,0-.536-1.234,2.236,2.236,0,0,0-1.476-.447H12.382v3.3ZM-9.83,9.248l-5.445,14.937h-4.679L-25.4,9.248h3.98l3.8,11.277,3.827-11.277Zm-.126,8.979a6.936,6.936,0,0,1,.711-3.213,5.207,5.207,0,0,1,1.935-2.128,5.157,5.157,0,0,1,2.733-.745,4.8,4.8,0,0,1,2.263.511,3.828,3.828,0,0,1,1.5,1.34V12.312H2.924V24.185H-.815V22.5a4,4,0,0,1-1.52,1.34,4.8,4.8,0,0,1-2.263.511A5.063,5.063,0,0,1-7.309,23.6a5.267,5.267,0,0,1-1.935-2.149A7,7,0,0,1-9.955,18.227Zm9.14.021A2.927,2.927,0,0,0-1.591,16.1a2.556,2.556,0,0,0-1.891-.787,2.573,2.573,0,0,0-1.891.777,2.89,2.89,0,0,0-.776,2.138,2.965,2.965,0,0,0,.776,2.16,2.539,2.539,0,0,0,1.891.8A2.556,2.556,0,0,0-1.591,20.4,2.927,2.927,0,0,0-.815,18.249ZM9.375,8.44V24.185H5.636V8.44Zm14.76,3.872V24.185H20.4V22.568a4.077,4.077,0,0,1-1.542,1.266,4.812,4.812,0,0,1-2.154.479,4.93,4.93,0,0,1-2.471-.606,4.134,4.134,0,0,1-1.662-1.755,5.839,5.839,0,0,1-.59-2.7V12.312h3.717v6.447a2.562,2.562,0,0,0,.634,1.851,2.256,2.256,0,0,0,1.706.66,2.284,2.284,0,0,0,1.727-.66,2.562,2.562,0,0,0,.634-1.851V12.312Zm14.191,5.745a9.041,9.041,0,0,1-.066,1.064H29.8a2.443,2.443,0,0,0,.733,1.692,2.273,2.273,0,0,0,1.585.585,1.971,1.971,0,0,0,1.946-1.149h3.98a5.263,5.263,0,0,1-1.1,2.106,5.517,5.517,0,0,1-2,1.468,6.58,6.58,0,0,1-2.69.532,6.691,6.691,0,0,1-3.193-.745,5.373,5.373,0,0,1-2.187-2.128,6.426,6.426,0,0,1-.787-3.234,6.5,6.5,0,0,1,.776-3.234,5.3,5.3,0,0,1,2.176-2.128,7.262,7.262,0,0,1,6.363-.021A5.272,5.272,0,0,1,37.55,14.93,6.13,6.13,0,0,1,38.327,18.057ZM34.5,17.1a1.848,1.848,0,0,0-.656-1.489,2.456,2.456,0,0,0-1.64-.553,2.41,2.41,0,0,0-1.585.532,2.343,2.343,0,0,0-.8,1.511ZM-4.846,28.8v2.915H-8.914V43.741h-3.739V31.719H-16.72V28.8ZM.719,43.911a6.887,6.887,0,0,1-3.225-.745,5.538,5.538,0,0,1-2.252-2.128,6.223,6.223,0,0,1-.82-3.234,6.173,6.173,0,0,1,.831-3.224,5.572,5.572,0,0,1,2.274-2.138A6.953,6.953,0,0,1,.763,31.7,6.953,6.953,0,0,1,4,32.443a5.572,5.572,0,0,1,2.274,2.138A6.173,6.173,0,0,1,7.1,37.8a6.111,6.111,0,0,1-.842,3.224,5.629,5.629,0,0,1-2.3,2.138A7.019,7.019,0,0,1,.719,43.911Zm0-3.149A2.468,2.468,0,0,0,2.545,40,2.993,2.993,0,0,0,3.3,37.8a3.047,3.047,0,0,0-.733-2.192,2.4,2.4,0,0,0-1.8-.766,2.4,2.4,0,0,0-1.815.755,3.069,3.069,0,0,0-.722,2.2A3.106,3.106,0,0,0-1.063,40,2.329,2.329,0,0,0,.719,40.762ZM14.35,43.911a6.887,6.887,0,0,1-3.225-.745,5.538,5.538,0,0,1-2.252-2.128,6.727,6.727,0,0,1,.011-6.458,5.572,5.572,0,0,1,2.274-2.138,6.953,6.953,0,0,1,3.236-.745,6.953,6.953,0,0,1,3.236.745A5.572,5.572,0,0,1,19.9,34.581a6.173,6.173,0,0,1,.831,3.224,6.111,6.111,0,0,1-.842,3.224,5.629,5.629,0,0,1-2.3,2.138A7.019,7.019,0,0,1,14.35,43.911Zm0-3.149A2.468,2.468,0,0,0,16.176,40,2.993,2.993,0,0,0,16.93,37.8a3.047,3.047,0,0,0-.733-2.192,2.533,2.533,0,0,0-3.619-.011,3.069,3.069,0,0,0-.722,2.2A3.106,3.106,0,0,0,12.568,40,2.329,2.329,0,0,0,14.35,40.762ZM26.464,28V43.741H22.725V28Z" transform="translate(52.921 42.392)" fill="#5a23ec"/>
    </g>
  </g>
</svg>
